<?xml version="1.0" standalone="no"?>
<!DOCTYPE svg PUBLIC "-//W3C//DTD SVG 20010904//EN"
 "http://www.w3.org/TR/2001/REC-SVG-20010904/DTD/svg10.dtd">
<svg version="1.0" xmlns="http://www.w3.org/2000/svg"
 width="32.000000pt" height="32.000000pt" viewBox="0 0 32.000000 32.000000"
 preserveAspectRatio="xMidYMid meet">
<metadata>
Created by potrace 1.16, written by Peter Selinger 2001-2019
</metadata>
<g transform="translate(0.000000,32.000000) scale(0.100000,-0.100000)"
fill="#000000" stroke="none">
<path d="M210 272 c0 -18 -44 -65 -90 -95 -13 -10 -20 -17 -14 -17 14 0 53 28
95 67 l35 34 27 -21 c51 -40 25 -150 -43 -185 -42 -22 -81 -19 -87 5 -3 11 -9
17 -14 14 -5 -3 -5 -14 1 -25 23 -41 122 -13 168 48 15 20 16 129 1 138 -5 4
-14 18 -19 31 -12 30 -60 35 -60 6z"/>
<path d="M33 153 c-34 -13 1 -86 47 -97 25 -6 25 -6 3 5 -13 7 -23 20 -23 29
0 10 -7 21 -16 24 -21 8 -2 33 29 39 19 4 19 4 -3 5 -14 0 -31 -2 -37 -5z"/>
</g>
</svg>
